HIERARCHY
ROOT root
{
	OFFSET 0.000000 0.000000 0.000000
	CHANNELS 6 Xposition Yposition Zposition Zrotation Yrotation Xrotation
	JOINT lhip
	{
		OFFSET 0.058581 -0.082280 -0.017664
		CHANNELS 3 Zrotation Yrotation Xrotation
		JOINT lknee
		{
			OFFSET 0.043451 -0.386469 0.008037
			CHANNELS 3 Zrotation Yrotation Xrotation
			JOINT lankle
			{
				OFFSET -0.014790 -0.426874 -0.037428
				CHANNELS 3 Zrotation Yrotation Xrotation
				JOINT ltoe
				{
					OFFSET 0.041054 -0.060286 0.122042
					CHANNELS 3 Zrotation Yrotation Xrotation
					End Site
					{
						OFFSET 0.000000 0.000000 0.000000
					}
				}
			}
		}
	}
	JOINT rhip
	{
		OFFSET -0.060310 -0.090513 -0.013543
		CHANNELS 3 Zrotation Yrotation Xrotation
		JOINT rknee
		{
			OFFSET -0.043257 -0.383688 -0.004843
			CHANNELS 3 Zrotation Yrotation Xrotation
			JOINT rankle
			{
				OFFSET 0.019056 -0.420046 -0.034562
				CHANNELS 3 Zrotation Yrotation Xrotation
				JOINT rtoe
				{
					OFFSET -0.034840 -0.062106 0.130323
					CHANNELS 3 Zrotation Yrotation Xrotation
					End Site
					{
						OFFSET 0.000000 0.000000 0.000000
					}
				}
			}
		}
	}
	JOINT lowerback
	{
		OFFSET 0.004439 0.124404 -0.038385
		CHANNELS 3 Zrotation Yrotation Xrotation
		JOINT upperback
		{
			OFFSET 0.004488 0.137956 0.026820
			CHANNELS 3 Zrotation Yrotation Xrotation
			JOINT chest
			{
				OFFSET -0.002265 0.056032 0.002855
				CHANNELS 3 Zrotation Yrotation Xrotation
				JOINT lowerneck
				{
					OFFSET -0.013390 0.211636 -0.033468
					CHANNELS 3 Zrotation Yrotation Xrotation
					JOINT upperneck
					{
						OFFSET 0.010113 0.088937 0.050410
						CHANNELS 3 Zrotation Yrotation Xrotation
						End Site
						{
							OFFSET 0.000000 0.000000 0.000000
						}
					}
				}
				JOINT lclavicle
				{
					OFFSET 0.071702 0.114000 -0.018898
					CHANNELS 3 Zrotation Yrotation Xrotation
					JOINT lshoulder
					{
						OFFSET 0.122921 0.045205 -0.019046
						CHANNELS 3 Zrotation Yrotation Xrotation
						JOINT lelbow
						{
							OFFSET 0.255332 -0.015649 -0.022946
							CHANNELS 3 Zrotation Yrotation Xrotation
							JOINT lwrist
							{
								OFFSET 0.265709 0.012698 -0.007375
								CHANNELS 3 Zrotation Yrotation Xrotation
								End Site
								{
									OFFSET 0.000000 0.000000 0.000000
								}
							}
						}
					}
				}
				JOINT rclavicle
				{
					OFFSET -0.082954 0.112472 -0.023707
					CHANNELS 3 Zrotation Yrotation Xrotation
					JOINT rshoulder
					{
						OFFSET -0.113228 0.046853 -0.008472
						CHANNELS 3 Zrotation Yrotation Xrotation
						JOINT relbow
						{
							OFFSET -0.260127 -0.014369 -0.031269
							CHANNELS 3 Zrotation Yrotation Xrotation
							JOINT rwrist
							{
								OFFSET -0.269108 0.006794 -0.006027
								CHANNELS 3 Zrotation Yrotation Xrotation
								End Site
								{
									OFFSET 0.000000 0.000000 0.000000
								}
							}
						}
					}
				}
			}
		}
	}
}
MOTION
Frames: 11
Frame Time: 0.033333
-0.022403 0.597115 0.427886 169.928074 -10.654055 35.784236 29.154154 14.908507 -33.603014 -22.790587 -2.148392 118.444017 -1.977252 5.753172 -34.417637 0.000000 -0.000000 0.000000 -23.485599 -3.668458 -50.902341 0.912208 -11.135355 139.872741 1.224211 -3.969672 -33.219230 0.000000 -0.000000 0.000000 -1.752597 -17.896220 70.831632 3.871308 -4.725008 -2.321238 -0.521711 -6.655731 5.179464 -12.364599 8.936294 14.587562 -10.373200 5.851331 6.401088 -17.018286 -15.624643 1.279946 -25.501566 -5.002695 -11.384696 6.649006 -25.405606 9.847473 -1.739597 -7.243064 6.348765 20.002723 11.195700 1.621462 43.170972 -3.496173 -7.941954 -10.697096 0.088152 -7.657568 -1.186769 14.373614 29.005720 
-0.027146 0.624786 0.427582 168.774484 -10.439037 36.595599 29.994421 15.355563 -33.248888 -21.536149 -1.408134 121.592454 -2.145514 7.040499 -34.525557 0.000000 -0.000000 0.000000 -24.627204 -3.822071 -50.072009 2.064985 -11.311807 141.517566 1.586478 -3.310586 -33.533988 0.000000 -0.000000 0.000000 -1.812969 -18.634378 71.575870 4.570601 -4.516792 -2.323711 -0.256291 -6.610124 4.826669 -13.527066 8.464726 13.855617 -10.970222 6.398731 6.488783 -17.099654 -16.488920 1.079269 -24.184432 -5.430304 -11.945323 7.214438 -26.501745 9.132286 -2.994945 -7.245952 6.974452 20.205464 11.879602 1.338459 40.167591 -3.711365 -9.319020 -12.006129 -0.850873 -9.285239 3.355595 11.794605 33.036019 
-0.032196 0.652722 0.424081 168.287363 -10.072778 37.050043 30.612561 15.268504 -33.441569 -21.308011 -0.458714 125.039118 -2.262307 7.270805 -34.107329 0.000000 -0.000000 0.000000 -26.311231 -4.142829 -48.991738 3.106342 -11.199386 143.399569 1.993637 -2.415359 -33.858534 0.000000 -0.000000 0.000000 -1.713070 -18.953286 72.078732 5.341013 -4.550502 -1.741403 -0.031175 -6.527850 4.304946 -14.219091 8.191808 12.978685 -11.190002 6.234408 6.224384 -17.022719 -17.919544 0.932637 -22.802830 -5.923066 -11.821290 7.907141 -27.822074 7.645995 -2.465321 -7.626735 7.486215 20.771859 12.835561 1.179396 37.742180 -4.436763 -10.152272 -13.954950 -1.894515 -11.256130 6.938829 8.657056 37.114782 
-0.037003 0.678771 0.418485 167.822998 -9.512973 37.251241 31.341892 15.179279 -33.587567 -21.828949 0.229839 128.360654 -2.586854 7.223216 -33.364758 0.000000 -0.000000 0.000000 -27.809283 -4.177423 -47.881342 4.019848 -11.138058 145.220905 2.449730 -1.638351 -33.861078 0.000000 -0.000000 0.000000 -1.604493 -19.194335 73.007881 5.873026 -4.390905 -1.172452 0.152331 -6.358992 3.710554 -14.706747 8.147268 12.024666 -11.261149 6.161020 6.134575 -16.995944 -19.500926 0.918332 -21.005541 -6.526430 -11.742599 8.503132 -29.341594 6.370686 -3.375380 -7.484806 6.730972 21.402302 13.788153 1.240687 35.958669 -4.981730 -10.853513 -15.903558 -3.135351 -12.740113 9.333165 5.565601 40.543891 
-0.042098 0.699417 0.416782 167.822589 -9.184390 35.844513 30.853908 15.155247 -31.661495 -22.138689 -0.274670 131.185112 -3.147632 8.048993 -33.559592 0.000000 -0.000000 0.000000 -29.019884 -3.741214 -44.681312 4.954008 -10.407832 145.921312 3.183075 -1.559425 -34.076285 0.000000 -0.000000 0.000000 -1.071627 -18.716394 76.317418 6.299514 -5.014240 -1.691222 0.528265 -6.520926 3.494728 -15.201312 8.050470 10.275001 -11.611522 6.290786 6.441698 -16.748758 -21.357460 0.195660 -18.777001 -7.328082 -12.124176 8.196186 -30.212933 6.259862 -2.902599 -8.029120 6.739769 21.825555 14.985444 0.337076 34.827882 -5.920652 -10.643926 -16.977580 -4.295515 -13.928894 8.976753 4.205311 43.157505 
-0.047401 0.719526 0.409500 167.875114 -8.242935 36.438620 31.298866 14.673039 -32.353441 -22.165630 0.570583 133.936898 -3.366531 8.703167 -34.339100 0.000000 -0.000000 0.000000 -30.130766 -3.414706 -43.724299 5.484606 -10.219990 147.304988 3.833409 -1.284540 -34.784361 0.000000 -0.000000 0.000000 -1.678046 -19.080456 77.082553 6.898241 -4.756355 -1.533132 0.512799 -5.754026 3.626647 -15.548472 8.860257 9.327130 -11.684536 6.079564 6.300223 -15.868745 -22.451586 -0.337283 -17.194685 -8.263068 -12.360005 8.288890 -31.328857 6.023737 -2.759251 -8.467672 6.657255 21.969020 15.861259 0.888285 34.605146 -6.529890 -10.231870 -17.580820 -4.059627 -13.324526 9.311216 2.402907 44.205611 
-0.053904 0.736374 0.404632 168.062838 -7.278522 37.263925 31.476621 14.314721 -33.083290 -21.904142 1.301013 136.042182 -3.424589 9.328812 -35.163177 0.000000 -0.000000 0.000000 -31.060114 -3.319750 -42.889076 6.177937 -9.862515 148.035964 4.239215 -0.974383 -35.076807 0.000000 -0.000000 0.000000 -1.332075 -19.457270 77.426658 7.189294 -4.810947 -0.709925 0.722563 -5.227134 2.880669 -16.336218 9.019990 8.746545 -11.394333 6.384088 5.340949 -15.026679 -24.222757 -0.678941 -15.754425 -8.393891 -12.785478 8.529000 -32.610219 4.889258 -3.758778 -8.323933 6.730405 22.064509 17.386345 1.574987 34.187493 -7.665183 -9.768595 -17.377523 -3.049935 -11.838276 11.660974 -1.976882 46.569515 
-0.061396 0.750348 0.402619 168.235141 -6.433421 38.748925 31.513723 14.223185 -34.286259 -21.562278 2.186618 137.660501 -3.826825 9.487473 -35.922235 0.000000 -0.000000 0.000000 -31.794674 -3.665438 -42.975769 6.770579 -9.456519 148.378168 4.818154 -0.844198 -34.765750 0.000000 -0.000000 0.000000 -1.072356 -19.607440 77.588056 7.304908 -4.142466 -0.384251 1.338465 -4.885614 2.195312 -17.344074 8.681855 8.432706 -10.911532 7.220528 4.026608 -14.145336 -25.936589 -1.066780 -14.588810 -8.202287 -12.912281 8.933784 -34.254908 3.744769 -5.982620 -7.837072 6.464286 21.706040 18.966272 1.484516 33.311804 -8.383158 -9.237469 -16.582329 -1.617042 -9.787706 17.854922 -9.564023 48.099119 
-0.069665 0.760952 0.404498 168.187073 -5.957243 40.409536 31.541669 14.535656 -35.135165 -21.435651 3.025411 138.565560 -4.041199 8.954115 -36.213987 0.000000 -0.000000 0.000000 -32.196278 -4.311419 -43.470148 7.078852 -8.905430 148.202139 5.145743 -1.157927 -34.540819 0.000000 -0.000000 0.000000 -0.903647 -19.468975 77.691411 7.049349 -3.562900 -0.080248 1.779339 -4.377917 1.579079 -18.007962 8.453405 7.912268 -9.992524 7.983077 2.782090 -12.704471 -27.370024 -1.790988 -13.192262 -7.421609 -13.125416 8.744319 -36.631501 3.043786 -9.261052 -7.483043 6.654402 20.695868 20.873615 1.260543 32.882165 -8.105210 -9.097817 -15.277024 -0.144620 -8.074681 24.762851 -17.511748 48.383441 
-0.077852 0.768236 0.410444 167.764930 -6.112018 42.283523 31.370797 15.549777 -35.521510 -21.573334 3.740102 138.699899 -4.107978 8.050011 -35.979318 0.000000 -0.000000 0.000000 -32.267145 -4.799686 -44.346632 7.089003 -8.063395 147.430974 5.204398 -1.742884 -34.535729 0.000000 -0.000000 0.000000 -0.872876 -18.649617 78.363606 6.590352 -3.092843 -1.009812 1.885071 -3.566870 1.311799 -18.389552 8.364848 7.234667 -8.898242 8.293260 1.832770 -11.128680 -28.300401 -2.370629 -11.543243 -6.527101 -13.005881 8.126281 -39.662660 2.839378 -10.070484 -7.596201 6.155032 19.617592 22.922165 1.486225 33.163228 -7.395216 -8.866276 -14.125320 1.295863 -6.788302 28.792865 -21.679550 47.056300 
-0.086211 0.773556 0.420141 167.443976 -5.901058 44.347932 31.058624 16.432976 -36.184765 -21.664644 4.179419 138.333159 -4.292351 6.790703 -35.660838 0.000000 -0.000000 0.000000 -32.298543 -5.372551 -44.929196 6.984005 -7.181303 146.043236 5.426727 -1.558028 -34.043584 0.000000 -0.000000 0.000000 -0.692762 -18.126782 78.487952 5.858566 -2.370421 -1.619191 1.958596 -2.860462 1.211506 -18.741507 8.188331 6.199408 -7.995916 8.218029 0.675710 -9.334745 -28.874619 -3.444641 -10.178784 -5.846219 -12.623151 7.794979 -42.957329 2.515506 -9.452919 -8.093373 4.507850 18.521678 25.010340 1.217622 33.428069 -6.177390 -8.865890 -13.708319 1.636042 -7.812126 30.034012 -22.298447 46.203056 
